<svg width="1234" height="1376" viewBox="0 0 1234 1376" fill="none" xmlns="http://www.w3.org/2000/svg">
<path d="M872.958 345.508C910.405 345.508 944.527 354.257 975.325 371.756C1006.47 388.904 1031.14 410.777 1049.34 437.375C1067.89 463.973 1077.17 491.096 1077.17 518.743C1077.17 553.74 1060.54 586.637 1027.3 617.435C994.048 647.882 950.302 669.58 896.056 682.529L901.831 724.001C909.18 782.096 907.081 832.666 895.531 875.713C883.982 918.759 865.959 955.156 841.461 984.903C817.313 1014.3 789.491 1038.27 757.993 1056.82C726.496 1075.02 694.124 1088.49 660.877 1097.24C627.979 1105.99 597.532 1111.07 569.534 1112.47V1311.95C569.534 1323.85 567.435 1333.47 563.235 1340.82C559.385 1348.17 550.286 1354.47 535.937 1359.72C510.039 1368.47 482.217 1373.55 452.469 1374.94C423.072 1376.34 393.499 1374.42 363.752 1369.17C334.004 1363.92 305.482 1355.87 278.184 1345.02C251.237 1334.17 226.914 1321.05 205.215 1305.65C183.867 1290.6 167.244 1273.63 155.345 1254.73C149.045 1245.28 145.371 1235.13 144.321 1224.28C143.271 1213.43 147.47 1203.63 156.92 1194.89C196.466 1157.79 235.663 1117.37 274.51 1073.62C313.356 1029.52 349.753 981.754 383.7 930.308C417.997 878.862 447.745 823.042 472.943 762.847C403.649 757.948 339.254 740.974 279.759 711.927C220.614 682.529 169.344 644.208 125.947 596.962C82.9009 549.366 50.1787 495.645 27.7806 435.8C5.73252 375.605 -3.19173 312.086 1.00791 245.242C1.35788 235.092 2.93276 224.943 5.73252 214.794C8.53228 204.645 13.9568 196.421 22.0061 190.121C30.4054 183.472 42.6544 180.672 58.753 181.722C119.298 186.272 179.143 197.821 238.288 216.369C297.783 234.567 355.003 257.84 409.948 286.188C465.243 314.536 516.864 346.383 564.81 381.73C612.756 417.077 655.802 454.174 693.949 493.02C707.947 458.373 723.696 430.201 741.195 408.503C759.043 386.804 778.816 370.881 800.515 360.732C822.563 350.583 846.711 345.508 872.958 345.508ZM928.079 527.667C936.478 527.667 943.827 524.518 950.127 518.218C956.776 511.919 960.101 504.394 960.101 495.645C960.101 486.896 956.776 479.372 950.127 473.072C943.827 466.423 936.478 463.098 928.079 463.098C918.98 463.098 911.28 466.423 904.981 473.072C898.681 479.372 895.531 486.896 895.531 495.645C895.531 504.394 898.681 511.919 904.981 518.218C911.28 524.518 918.98 527.667 928.079 527.667ZM1005.25 595.912L1039.89 486.721L1213.13 560.215C1222.23 564.064 1228.18 569.664 1230.98 577.013C1233.78 584.363 1234.13 591.887 1232.03 599.586C1229.93 607.286 1225.73 613.585 1219.43 618.485C1213.13 623.034 1205.6 624.609 1196.86 623.209L1005.25 595.912ZM805.239 283.038C780.041 290.038 756.593 301.412 734.895 317.16C713.197 332.909 693.249 353.207 675.05 378.055C638.303 346.558 598.407 316.635 555.361 288.288C512.664 259.94 467.693 234.217 420.447 211.119C421.847 184.172 424.822 157.049 429.371 129.751C434.271 102.454 440.57 75.3311 448.27 48.3834C453.869 26.3352 465.593 11.6365 483.442 4.28713C501.29 -3.06224 520.364 -0.962418 540.662 10.5866C595.957 42.4339 645.303 80.7556 688.699 125.552C732.445 169.998 771.292 222.494 805.239 283.038Z" fill="black" style="fill:black;fill-opacity:1;"/>
</svg>
