<svg width="307" height="342" viewBox="0 0 307 342" fill="none" xmlns="http://www.w3.org/2000/svg">
<path d="M14.6781 215.12C10.5745 215.12 7.10229 213.7 4.26137 210.859C1.42046 207.913 0 204.335 0 200.127V141.099C0 136.995 1.42046 133.47 4.26137 130.524C7.10229 127.473 10.5745 125.947 14.6781 125.947C18.992 125.947 22.5695 127.473 25.4104 130.524C28.3565 133.47 29.8296 136.995 29.8296 141.099V200.127C29.8296 204.335 28.3565 207.913 25.4104 210.859C22.5695 213.7 18.992 215.12 14.6781 215.12ZM70.0759 281.724C65.8671 281.724 62.3423 280.304 59.5014 277.463C56.6605 274.517 55.24 270.939 55.24 266.73V74.6529C55.24 70.4442 56.6605 66.8667 59.5014 63.9206C62.3423 60.9745 65.8671 59.5014 70.0759 59.5014C74.2847 59.5014 77.8095 60.9745 80.6504 63.9206C83.5965 66.8667 85.0696 70.4442 85.0696 74.6529V266.73C85.0696 270.939 83.5965 274.517 80.6504 277.463C77.8095 280.304 74.2847 281.724 70.0759 281.724ZM125.158 341.383C121.055 341.383 117.582 339.91 114.741 336.964C111.9 334.123 110.48 330.598 110.48 326.39V14.9937C110.48 10.785 111.9 7.26012 114.741 4.4192C117.582 1.47307 121.055 0 125.158 0C129.472 0 133.05 1.47307 135.89 4.4192C138.837 7.26012 140.31 10.785 140.31 14.9937V326.39C140.31 330.598 138.837 334.123 135.89 336.964C133.05 339.91 129.472 341.383 125.158 341.383ZM180.556 260.259C176.347 260.259 172.822 258.839 169.981 255.998C167.14 253.157 165.72 249.632 165.72 245.423V95.9598C165.72 91.751 167.14 88.2262 169.981 85.3853C172.822 82.4391 176.347 80.9661 180.556 80.9661C184.765 80.9661 188.29 82.4391 191.13 85.3853C194.077 88.2262 195.55 91.751 195.55 95.9598V245.423C195.55 249.632 194.077 253.157 191.13 255.998C188.29 258.839 184.765 260.259 180.556 260.259ZM235.954 306.661C231.64 306.661 228.062 305.188 225.221 302.242C222.381 299.401 220.96 295.929 220.96 291.825V49.5582C220.96 45.4546 222.381 41.9298 225.221 38.9837C228.062 36.0375 231.64 34.5645 235.954 34.5645C240.057 34.5645 243.53 36.0375 246.37 38.9837C249.317 41.9298 250.79 45.4546 250.79 49.5582V291.825C250.79 295.929 249.317 299.401 246.37 302.242C243.53 305.188 240.057 306.661 235.954 306.661ZM291.036 230.272C286.827 230.272 283.302 228.799 280.461 225.853C277.621 222.907 276.2 219.382 276.2 215.278V125.947C276.2 121.844 277.621 118.319 280.461 115.373C283.302 112.427 286.827 110.953 291.036 110.953C295.245 110.953 298.822 112.427 301.768 115.373C304.714 118.319 306.188 121.844 306.188 125.947V215.278C306.188 219.382 304.714 222.907 301.768 225.853C298.822 228.799 295.245 230.272 291.036 230.272Z" fill="black" style="fill:black;fill-opacity:1;"/>
</svg>
